<svg xmlns="http://www.w3.org/2000/svg" viewBox="0 0 1232 504" role="img" aria-hidden="true"><path fill="#141619" d="M32 0h5.0v5.0h-5.0zM192 0h5.0v5.0h-5.0zM208 0h5.0v5.0h-5.0zM256 0h5.0v5.0h-5.0zM384 0h5.0v5.0h-5.0zM544 0h5.0v5.0h-5.0zM560 0h5.0v5.0h-5.0zM608 0h5.0v5.0h-5.0zM736 0h5.0v5.0h-5.0zM896 0h5.0v5.0h-5.0zM912 0h5.0v5.0h-5.0zM960 0h5.0v5.0h-5.0zM1088 0h5.0v5.0h-5.0zM440 8h5.0v5.0h-5.0zM552 8h5.0v5.0h-5.0zM568 8h5.0v5.0h-5.0zM616 8h5.0v5.0h-5.0zM728 8h5.0v5.0h-5.0zM744 8h5.0v5.0h-5.0zM792 8h5.0v5.0h-5.0zM968 8h5.0v5.0h-5.0zM1144 8h5.0v5.0h-5.0zM184 16h5.0v5.0h-5.0zM432 16h5.0v5.0h-5.0zM440 16h5.0v5.0h-5.0zM448 16h5.0v5.0h-5.0zM536 16h5.0v5.0h-5.0zM608 16h5.0v5.0h-5.0zM616 16h5.0v5.0h-5.0zM720 16h5.0v5.0h-5.0zM728 16h5.0v5.0h-5.0zM736 16h5.0v5.0h-5.0zM744 16h5.0v5.0h-5.0zM752 16h5.0v5.0h-5.0zM784 16h5.0v5.0h-5.0zM888 16h5.0v5.0h-5.0zM920 16h5.0v5.0h-5.0zM960 16h5.0v5.0h-5.0zM968 16h5.0v5.0h-5.0zM976 16h5.0v5.0h-5.0zM440 24h5.0v5.0h-5.0zM456 24h5.0v5.0h-5.0zM568 24h5.0v5.0h-5.0zM712 24h5.0v5.0h-5.0zM728 24h5.0v5.0h-5.0zM744 24h5.0v5.0h-5.0zM760 24h5.0v5.0h-5.0zM808 24h5.0v5.0h-5.0zM920 24h5.0v5.0h-5.0zM936 24h5.0v5.0h-5.0zM968 24h5.0v5.0h-5.0zM984 24h5.0v5.0h-5.0zM0 32h5.0v5.0h-5.0zM8 32h5.0v5.0h-5.0zM32 32h5.0v5.0h-5.0zM64 32h5.0v5.0h-5.0zM80 32h5.0v5.0h-5.0zM112 32h5.0v5.0h-5.0zM176 32h5.0v5.0h-5.0zM240 32h5.0v5.0h-5.0zM256 32h5.0v5.0h-5.0zM384 32h5.0v5.0h-5.0zM416 32h5.0v5.0h-5.0zM432 32h5.0v5.0h-5.0zM456 32h5.0v5.0h-5.0zM464 32h5.0v5.0h-5.0zM528 32h5.0v5.0h-5.0zM560 32h5.0v5.0h-5.0zM592 32h5.0v5.0h-5.0zM608 32h5.0v5.0h-5.0zM616 32h5.0v5.0h-5.0zM624 32h5.0v5.0h-5.0zM632 32h5.0v5.0h-5.0zM640 32h5.0v5.0h-5.0zM704 32h5.0v5.0h-5.0zM712 32h5.0v5.0h-5.0zM720 32h5.0v5.0h-5.0zM736 32h5.0v5.0h-5.0zM752 32h5.0v5.0h-5.0zM760 32h5.0v5.0h-5.0zM768 32h5.0v5.0h-5.0zM784 32h5.0v5.0h-5.0zM800 32h5.0v5.0h-5.0zM808 32h5.0v5.0h-5.0zM816 32h5.0v5.0h-5.0zM880 32h5.0v5.0h-5.0zM936 32h5.0v5.0h-5.0zM944 32h5.0v5.0h-5.0zM960 32h5.0v5.0h-5.0zM968 32h5.0v5.0h-5.0zM976 32h5.0v5.0h-5.0zM992 32h5.0v5.0h-5.0zM1056 32h5.0v5.0h-5.0zM1088 32h5.0v5.0h-5.0zM1120 32h5.0v5.0h-5.0zM1136 32h5.0v5.0h-5.0zM1168 32h5.0v5.0h-5.0zM8 40h5.0v5.0h-5.0zM632 40h5.0v5.0h-5.0zM712 40h5.0v5.0h-5.0zM760 40h5.0v5.0h-5.0zM984 40h5.0v5.0h-5.0zM0 48h5.0v5.0h-5.0zM8 48h5.0v5.0h-5.0zM16 48h5.0v5.0h-5.0zM48 48h5.0v5.0h-5.0zM104 48h5.0v5.0h-5.0zM176 48h5.0v5.0h-5.0zM192 48h5.0v5.0h-5.0zM224 48h5.0v5.0h-5.0zM272 48h5.0v5.0h-5.0zM352 48h5.0v5.0h-5.0zM400 48h5.0v5.0h-5.0zM416 48h5.0v5.0h-5.0zM528 48h5.0v5.0h-5.0zM576 48h5.0v5.0h-5.0zM592 48h5.0v5.0h-5.0zM624 48h5.0v5.0h-5.0zM632 48h5.0v5.0h-5.0zM640 48h5.0v5.0h-5.0zM704 48h5.0v5.0h-5.0zM712 48h5.0v5.0h-5.0zM720 48h5.0v5.0h-5.0zM752 48h5.0v5.0h-5.0zM760 48h5.0v5.0h-5.0zM768 48h5.0v5.0h-5.0zM880 48h5.0v5.0h-5.0zM896 48h5.0v5.0h-5.0zM928 48h5.0v5.0h-5.0zM936 48h5.0v5.0h-5.0zM944 48h5.0v5.0h-5.0zM976 48h5.0v5.0h-5.0zM1056 48h5.0v5.0h-5.0zM1104 48h5.0v5.0h-5.0zM8 56h5.0v5.0h-5.0zM56 56h5.0v5.0h-5.0zM104 56h5.0v5.0h-5.0zM120 56h5.0v5.0h-5.0zM472 56h5.0v5.0h-5.0zM632 56h5.0v5.0h-5.0zM712 56h5.0v5.0h-5.0zM760 56h5.0v5.0h-5.0zM808 56h5.0v5.0h-5.0zM824 56h5.0v5.0h-5.0zM888 56h5.0v5.0h-5.0zM936 56h5.0v5.0h-5.0zM984 56h5.0v5.0h-5.0zM1176 56h5.0v5.0h-5.0zM0 64h5.0v5.0h-5.0zM16 64h5.0v5.0h-5.0zM104 64h5.0v5.0h-5.0zM112 64h5.0v5.0h-5.0zM184 64h5.0v5.0h-5.0zM352 64h5.0v5.0h-5.0zM384 64h5.0v5.0h-5.0zM448 64h5.0v5.0h-5.0zM584 64h5.0v5.0h-5.0zM632 64h5.0v5.0h-5.0zM640 64h5.0v5.0h-5.0zM704 64h5.0v5.0h-5.0zM712 64h5.0v5.0h-5.0zM720 64h5.0v5.0h-5.0zM768 64h5.0v5.0h-5.0zM808 64h5.0v5.0h-5.0zM888 64h5.0v5.0h-5.0zM896 64h5.0v5.0h-5.0zM936 64h5.0v5.0h-5.0zM944 64h5.0v5.0h-5.0zM984 64h5.0v5.0h-5.0zM992 64h5.0v5.0h-5.0zM1056 64h5.0v5.0h-5.0zM1088 64h5.0v5.0h-5.0zM1152 64h5.0v5.0h-5.0zM8 72h5.0v5.0h-5.0zM64 72h5.0v5.0h-5.0zM72 72h5.0v5.0h-5.0zM104 72h5.0v5.0h-5.0zM184 72h5.0v5.0h-5.0zM192 72h5.0v5.0h-5.0zM200 72h5.0v5.0h-5.0zM296 72h5.0v5.0h-5.0zM360 72h5.0v5.0h-5.0zM424 72h5.0v5.0h-5.0zM536 72h5.0v5.0h-5.0zM552 72h5.0v5.0h-5.0zM584 72h5.0v5.0h-5.0zM632 72h5.0v5.0h-5.0zM640 72h5.0v5.0h-5.0zM648 72h5.0v5.0h-5.0zM712 72h5.0v5.0h-5.0zM768 72h5.0v5.0h-5.0zM776 72h5.0v5.0h-5.0zM808 72h5.0v5.0h-5.0zM888 72h5.0v5.0h-5.0zM896 72h5.0v5.0h-5.0zM904 72h5.0v5.0h-5.0zM952 72h5.0v5.0h-5.0zM984 72h5.0v5.0h-5.0zM1000 72h5.0v5.0h-5.0zM1064 72h5.0v5.0h-5.0zM16 80h5.0v5.0h-5.0zM24 80h5.0v5.0h-5.0zM48 80h5.0v5.0h-5.0zM64 80h5.0v5.0h-5.0zM72 80h5.0v5.0h-5.0zM80 80h5.0v5.0h-5.0zM96 80h5.0v5.0h-5.0zM104 80h5.0v5.0h-5.0zM112 80h5.0v5.0h-5.0zM192 80h5.0v5.0h-5.0zM200 80h5.0v5.0h-5.0zM208 80h5.0v5.0h-5.0zM384 80h5.0v5.0h-5.0zM400 80h5.0v5.0h-5.0zM424 80h5.0v5.0h-5.0zM432 80h5.0v5.0h-5.0zM448 80h5.0v5.0h-5.0zM560 80h5.0v5.0h-5.0zM608 80h5.0v5.0h-5.0zM624 80h5.0v5.0h-5.0zM632 80h5.0v5.0h-5.0zM640 80h5.0v5.0h-5.0zM720 80h5.0v5.0h-5.0zM728 80h5.0v5.0h-5.0zM752 80h5.0v5.0h-5.0zM768 80h5.0v5.0h-5.0zM776 80h5.0v5.0h-5.0zM784 80h5.0v5.0h-5.0zM800 80h5.0v5.0h-5.0zM808 80h5.0v5.0h-5.0zM816 80h5.0v5.0h-5.0zM896 80h5.0v5.0h-5.0zM904 80h5.0v5.0h-5.0zM912 80h5.0v5.0h-5.0zM944 80h5.0v5.0h-5.0zM952 80h5.0v5.0h-5.0zM960 80h5.0v5.0h-5.0zM976 80h5.0v5.0h-5.0zM984 80h5.0v5.0h-5.0zM992 80h5.0v5.0h-5.0zM1088 80h5.0v5.0h-5.0zM1104 80h5.0v5.0h-5.0zM56 88h5.0v5.0h-5.0zM72 88h5.0v5.0h-5.0zM88 88h5.0v5.0h-5.0zM104 88h5.0v5.0h-5.0zM184 88h5.0v5.0h-5.0zM424 88h5.0v5.0h-5.0zM632 88h5.0v5.0h-5.0zM712 88h5.0v5.0h-5.0zM728 88h5.0v5.0h-5.0zM744 88h5.0v5.0h-5.0zM760 88h5.0v5.0h-5.0zM776 88h5.0v5.0h-5.0zM792 88h5.0v5.0h-5.0zM808 88h5.0v5.0h-5.0zM888 88h5.0v5.0h-5.0zM904 88h5.0v5.0h-5.0zM920 88h5.0v5.0h-5.0zM936 88h5.0v5.0h-5.0zM952 88h5.0v5.0h-5.0zM968 88h5.0v5.0h-5.0zM984 88h5.0v5.0h-5.0zM0 96h5.0v5.0h-5.0zM48 96h5.0v5.0h-5.0zM80 96h5.0v5.0h-5.0zM88 96h5.0v5.0h-5.0zM96 96h5.0v5.0h-5.0zM104 96h5.0v5.0h-5.0zM112 96h5.0v5.0h-5.0zM176 96h5.0v5.0h-5.0zM184 96h5.0v5.0h-5.0zM192 96h5.0v5.0h-5.0zM208 96h5.0v5.0h-5.0zM288 96h5.0v5.0h-5.0zM352 96h5.0v5.0h-5.0zM400 96h5.0v5.0h-5.0zM424 96h5.0v5.0h-5.0zM464 96h5.0v5.0h-5.0zM528 96h5.0v5.0h-5.0zM616 96h5.0v5.0h-5.0zM624 96h5.0v5.0h-5.0zM632 96h5.0v5.0h-5.0zM640 96h5.0v5.0h-5.0zM704 96h5.0v5.0h-5.0zM712 96h5.0v5.0h-5.0zM720 96h5.0v5.0h-5.0zM728 96h5.0v5.0h-5.0zM736 96h5.0v5.0h-5.0zM744 96h5.0v5.0h-5.0zM752 96h5.0v5.0h-5.0zM760 96h5.0v5.0h-5.0zM768 96h5.0v5.0h-5.0zM776 96h5.0v5.0h-5.0zM792 96h5.0v5.0h-5.0zM808 96h5.0v5.0h-5.0zM816 96h5.0v5.0h-5.0zM880 96h5.0v5.0h-5.0zM888 96h5.0v5.0h-5.0zM896 96h5.0v5.0h-5.0zM904 96h5.0v5.0h-5.0zM912 96h5.0v5.0h-5.0zM920 96h5.0v5.0h-5.0zM928 96h5.0v5.0h-5.0zM936 96h5.0v5.0h-5.0zM944 96h5.0v5.0h-5.0zM952 96h5.0v5.0h-5.0zM960 96h5.0v5.0h-5.0zM968 96h5.0v5.0h-5.0zM976 96h5.0v5.0h-5.0zM984 96h5.0v5.0h-5.0zM992 96h5.0v5.0h-5.0zM1056 96h5.0v5.0h-5.0zM1168 96h5.0v5.0h-5.0zM72 104h5.0v5.0h-5.0zM88 104h5.0v5.0h-5.0zM104 104h5.0v5.0h-5.0zM184 104h5.0v5.0h-5.0zM216 104h5.0v5.0h-5.0zM376 104h5.0v5.0h-5.0zM392 104h5.0v5.0h-5.0zM456 104h5.0v5.0h-5.0zM632 104h5.0v5.0h-5.0zM712 104h5.0v5.0h-5.0zM736 104h5.0v5.0h-5.0zM744 104h5.0v5.0h-5.0zM760 104h5.0v5.0h-5.0zM776 104h5.0v5.0h-5.0zM808 104h5.0v5.0h-5.0zM888 104h5.0v5.0h-5.0zM904 104h5.0v5.0h-5.0zM920 104h5.0v5.0h-5.0zM928 104h5.0v5.0h-5.0zM936 104h5.0v5.0h-5.0zM952 104h5.0v5.0h-5.0zM968 104h5.0v5.0h-5.0zM1160 104h5.0v5.0h-5.0zM16 112h5.0v5.0h-5.0zM32 112h5.0v5.0h-5.0zM48 112h5.0v5.0h-5.0zM64 112h5.0v5.0h-5.0zM80 112h5.0v5.0h-5.0zM176 112h5.0v5.0h-5.0zM192 112h5.0v5.0h-5.0zM208 112h5.0v5.0h-5.0zM224 112h5.0v5.0h-5.0zM240 112h5.0v5.0h-5.0zM256 112h5.0v5.0h-5.0zM272 112h5.0v5.0h-5.0zM368 112h5.0v5.0h-5.0zM384 112h5.0v5.0h-5.0zM400 112h5.0v5.0h-5.0zM416 112h5.0v5.0h-5.0zM432 112h5.0v5.0h-5.0zM528 112h5.0v5.0h-5.0zM560 112h5.0v5.0h-5.0zM576 112h5.0v5.0h-5.0zM592 112h5.0v5.0h-5.0zM608 112h5.0v5.0h-5.0zM624 112h5.0v5.0h-5.0zM720 112h5.0v5.0h-5.0zM736 112h5.0v5.0h-5.0zM752 112h5.0v5.0h-5.0zM768 112h5.0v5.0h-5.0zM784 112h5.0v5.0h-5.0zM880 112h5.0v5.0h-5.0zM896 112h5.0v5.0h-5.0zM912 112h5.0v5.0h-5.0zM928 112h5.0v5.0h-5.0zM944 112h5.0v5.0h-5.0zM960 112h5.0v5.0h-5.0zM976 112h5.0v5.0h-5.0zM1072 112h5.0v5.0h-5.0zM1088 112h5.0v5.0h-5.0zM1104 112h5.0v5.0h-5.0zM1120 112h5.0v5.0h-5.0zM1136 112h5.0v5.0h-5.0zM40 168h5.0v5.0h-5.0zM200 168h5.0v5.0h-5.0zM552 168h5.0v5.0h-5.0zM744 168h5.0v5.0h-5.0zM904 168h5.0v5.0h-5.0zM48 176h5.0v5.0h-5.0zM80 176h5.0v5.0h-5.0zM88 176h5.0v5.0h-5.0zM96 176h5.0v5.0h-5.0zM272 176h5.0v5.0h-5.0zM368 176h5.0v5.0h-5.0zM376 176h5.0v5.0h-5.0zM384 176h5.0v5.0h-5.0zM392 176h5.0v5.0h-5.0zM400 176h5.0v5.0h-5.0zM432 176h5.0v5.0h-5.0zM440 176h5.0v5.0h-5.0zM448 176h5.0v5.0h-5.0zM544 176h5.0v5.0h-5.0zM552 176h5.0v5.0h-5.0zM560 176h5.0v5.0h-5.0zM568 176h5.0v5.0h-5.0zM576 176h5.0v5.0h-5.0zM608 176h5.0v5.0h-5.0zM624 176h5.0v5.0h-5.0zM800 176h5.0v5.0h-5.0zM896 176h5.0v5.0h-5.0zM904 176h5.0v5.0h-5.0zM912 176h5.0v5.0h-5.0zM920 176h5.0v5.0h-5.0zM928 176h5.0v5.0h-5.0zM960 176h5.0v5.0h-5.0zM976 176h5.0v5.0h-5.0zM1072 176h5.0v5.0h-5.0zM1080 176h5.0v5.0h-5.0zM1088 176h5.0v5.0h-5.0zM1096 176h5.0v5.0h-5.0zM1104 176h5.0v5.0h-5.0zM1136 176h5.0v5.0h-5.0zM1144 176h5.0v5.0h-5.0zM1152 176h5.0v5.0h-5.0zM56 184h5.0v5.0h-5.0zM280 184h5.0v5.0h-5.0zM360 184h5.0v5.0h-5.0zM376 184h5.0v5.0h-5.0zM392 184h5.0v5.0h-5.0zM536 184h5.0v5.0h-5.0zM568 184h5.0v5.0h-5.0zM616 184h5.0v5.0h-5.0zM632 184h5.0v5.0h-5.0zM760 184h5.0v5.0h-5.0zM888 184h5.0v5.0h-5.0zM904 184h5.0v5.0h-5.0zM920 184h5.0v5.0h-5.0zM984 184h5.0v5.0h-5.0zM1064 184h5.0v5.0h-5.0zM1080 184h5.0v5.0h-5.0zM1096 184h5.0v5.0h-5.0zM1144 184h5.0v5.0h-5.0zM0 192h5.0v5.0h-5.0zM64 192h5.0v5.0h-5.0zM112 192h5.0v5.0h-5.0zM176 192h5.0v5.0h-5.0zM288 192h5.0v5.0h-5.0zM352 192h5.0v5.0h-5.0zM360 192h5.0v5.0h-5.0zM368 192h5.0v5.0h-5.0zM376 192h5.0v5.0h-5.0zM384 192h5.0v5.0h-5.0zM392 192h5.0v5.0h-5.0zM400 192h5.0v5.0h-5.0zM408 192h5.0v5.0h-5.0zM416 192h5.0v5.0h-5.0zM432 192h5.0v5.0h-5.0zM448 192h5.0v5.0h-5.0zM456 192h5.0v5.0h-5.0zM464 192h5.0v5.0h-5.0zM528 192h5.0v5.0h-5.0zM536 192h5.0v5.0h-5.0zM544 192h5.0v5.0h-5.0zM552 192h5.0v5.0h-5.0zM560 192h5.0v5.0h-5.0zM568 192h5.0v5.0h-5.0zM576 192h5.0v5.0h-5.0zM584 192h5.0v5.0h-5.0zM608 192h5.0v5.0h-5.0zM616 192h5.0v5.0h-5.0zM624 192h5.0v5.0h-5.0zM632 192h5.0v5.0h-5.0zM640 192h5.0v5.0h-5.0zM704 192h5.0v5.0h-5.0zM768 192h5.0v5.0h-5.0zM816 192h5.0v5.0h-5.0zM880 192h5.0v5.0h-5.0zM888 192h5.0v5.0h-5.0zM896 192h5.0v5.0h-5.0zM904 192h5.0v5.0h-5.0zM912 192h5.0v5.0h-5.0zM936 192h5.0v5.0h-5.0zM960 192h5.0v5.0h-5.0zM992 192h5.0v5.0h-5.0zM1056 192h5.0v5.0h-5.0zM1072 192h5.0v5.0h-5.0zM1080 192h5.0v5.0h-5.0zM1088 192h5.0v5.0h-5.0zM1096 192h5.0v5.0h-5.0zM1104 192h5.0v5.0h-5.0zM1112 192h5.0v5.0h-5.0zM1120 192h5.0v5.0h-5.0zM1136 192h5.0v5.0h-5.0zM1144 192h5.0v5.0h-5.0zM1152 192h5.0v5.0h-5.0zM1160 192h5.0v5.0h-5.0zM1168 192h5.0v5.0h-5.0zM24 200h5.0v5.0h-5.0zM40 200h5.0v5.0h-5.0zM88 200h5.0v5.0h-5.0zM264 200h5.0v5.0h-5.0zM360 200h5.0v5.0h-5.0zM376 200h5.0v5.0h-5.0zM392 200h5.0v5.0h-5.0zM408 200h5.0v5.0h-5.0zM440 200h5.0v5.0h-5.0zM448 200h5.0v5.0h-5.0zM456 200h5.0v5.0h-5.0zM536 200h5.0v5.0h-5.0zM552 200h5.0v5.0h-5.0zM568 200h5.0v5.0h-5.0zM576 200h5.0v5.0h-5.0zM584 200h5.0v5.0h-5.0zM616 200h5.0v5.0h-5.0zM632 200h5.0v5.0h-5.0zM728 200h5.0v5.0h-5.0zM744 200h5.0v5.0h-5.0zM792 200h5.0v5.0h-5.0zM904 200h5.0v5.0h-5.0zM920 200h5.0v5.0h-5.0zM1064 200h5.0v5.0h-5.0zM1080 200h5.0v5.0h-5.0zM1096 200h5.0v5.0h-5.0zM1112 200h5.0v5.0h-5.0zM1144 200h5.0v5.0h-5.0zM1152 200h5.0v5.0h-5.0zM1160 200h5.0v5.0h-5.0zM0 208h5.0v5.0h-5.0zM64 208h5.0v5.0h-5.0zM96 208h5.0v5.0h-5.0zM288 208h5.0v5.0h-5.0zM352 208h5.0v5.0h-5.0zM360 208h5.0v5.0h-5.0zM368 208h5.0v5.0h-5.0zM400 208h5.0v5.0h-5.0zM408 208h5.0v5.0h-5.0zM416 208h5.0v5.0h-5.0zM448 208h5.0v5.0h-5.0zM464 208h5.0v5.0h-5.0zM528 208h5.0v5.0h-5.0zM536 208h5.0v5.0h-5.0zM544 208h5.0v5.0h-5.0zM576 208h5.0v5.0h-5.0zM584 208h5.0v5.0h-5.0zM592 208h5.0v5.0h-5.0zM624 208h5.0v5.0h-5.0zM632 208h5.0v5.0h-5.0zM640 208h5.0v5.0h-5.0zM704 208h5.0v5.0h-5.0zM752 208h5.0v5.0h-5.0zM768 208h5.0v5.0h-5.0zM800 208h5.0v5.0h-5.0zM880 208h5.0v5.0h-5.0zM896 208h5.0v5.0h-5.0zM928 208h5.0v5.0h-5.0zM944 208h5.0v5.0h-5.0zM976 208h5.0v5.0h-5.0zM1056 208h5.0v5.0h-5.0zM1064 208h5.0v5.0h-5.0zM1104 208h5.0v5.0h-5.0zM1112 208h5.0v5.0h-5.0zM1120 208h5.0v5.0h-5.0zM1152 208h5.0v5.0h-5.0zM1160 208h5.0v5.0h-5.0zM1168 208h5.0v5.0h-5.0zM360 216h5.0v5.0h-5.0zM456 216h5.0v5.0h-5.0zM536 216h5.0v5.0h-5.0zM584 216h5.0v5.0h-5.0zM632 216h5.0v5.0h-5.0zM888 216h5.0v5.0h-5.0zM1112 216h5.0v5.0h-5.0zM1160 216h5.0v5.0h-5.0zM0 224h5.0v5.0h-5.0zM16 224h5.0v5.0h-5.0zM64 224h5.0v5.0h-5.0zM96 224h5.0v5.0h-5.0zM104 224h5.0v5.0h-5.0zM224 224h5.0v5.0h-5.0zM352 224h5.0v5.0h-5.0zM360 224h5.0v5.0h-5.0zM368 224h5.0v5.0h-5.0zM408 224h5.0v5.0h-5.0zM528 224h5.0v5.0h-5.0zM536 224h5.0v5.0h-5.0zM544 224h5.0v5.0h-5.0zM576 224h5.0v5.0h-5.0zM584 224h5.0v5.0h-5.0zM592 224h5.0v5.0h-5.0zM632 224h5.0v5.0h-5.0zM640 224h5.0v5.0h-5.0zM704 224h5.0v5.0h-5.0zM720 224h5.0v5.0h-5.0zM768 224h5.0v5.0h-5.0zM800 224h5.0v5.0h-5.0zM808 224h5.0v5.0h-5.0zM880 224h5.0v5.0h-5.0zM928 224h5.0v5.0h-5.0zM1056 224h5.0v5.0h-5.0zM1072 224h5.0v5.0h-5.0zM1112 224h5.0v5.0h-5.0zM1120 224h5.0v5.0h-5.0zM1160 224h5.0v5.0h-5.0zM1168 224h5.0v5.0h-5.0zM56 232h5.0v5.0h-5.0zM72 232h5.0v5.0h-5.0zM248 232h5.0v5.0h-5.0zM296 232h5.0v5.0h-5.0zM360 232h5.0v5.0h-5.0zM408 232h5.0v5.0h-5.0zM416 232h5.0v5.0h-5.0zM424 232h5.0v5.0h-5.0zM536 232h5.0v5.0h-5.0zM584 232h5.0v5.0h-5.0zM632 232h5.0v5.0h-5.0zM648 232h5.0v5.0h-5.0zM760 232h5.0v5.0h-5.0zM776 232h5.0v5.0h-5.0zM808 232h5.0v5.0h-5.0zM952 232h5.0v5.0h-5.0zM1000 232h5.0v5.0h-5.0zM1112 232h5.0v5.0h-5.0zM1120 232h5.0v5.0h-5.0zM1128 232h5.0v5.0h-5.0zM1160 232h5.0v5.0h-5.0zM16 240h5.0v5.0h-5.0zM544 240h5.0v5.0h-5.0zM592 240h5.0v5.0h-5.0zM600 240h5.0v5.0h-5.0zM624 240h5.0v5.0h-5.0zM632 240h5.0v5.0h-5.0zM640 240h5.0v5.0h-5.0zM720 240h5.0v5.0h-5.0zM768 240h5.0v5.0h-5.0zM808 240h5.0v5.0h-5.0zM816 240h5.0v5.0h-5.0zM1120 240h5.0v5.0h-5.0zM1160 240h5.0v5.0h-5.0zM24 248h5.0v5.0h-5.0zM72 248h5.0v5.0h-5.0zM552 248h5.0v5.0h-5.0zM600 248h5.0v5.0h-5.0zM632 248h5.0v5.0h-5.0zM728 248h5.0v5.0h-5.0zM808 248h5.0v5.0h-5.0zM0 256h5.0v5.0h-5.0zM8 256h5.0v5.0h-5.0zM16 256h5.0v5.0h-5.0zM24 256h5.0v5.0h-5.0zM32 256h5.0v5.0h-5.0zM40 256h5.0v5.0h-5.0zM48 256h5.0v5.0h-5.0zM56 256h5.0v5.0h-5.0zM64 256h5.0v5.0h-5.0zM72 256h5.0v5.0h-5.0zM80 256h5.0v5.0h-5.0zM88 256h5.0v5.0h-5.0zM112 256h5.0v5.0h-5.0zM176 256h5.0v5.0h-5.0zM352 256h5.0v5.0h-5.0zM528 256h5.0v5.0h-5.0zM536 256h5.0v5.0h-5.0zM544 256h5.0v5.0h-5.0zM552 256h5.0v5.0h-5.0zM560 256h5.0v5.0h-5.0zM568 256h5.0v5.0h-5.0zM576 256h5.0v5.0h-5.0zM584 256h5.0v5.0h-5.0zM592 256h5.0v5.0h-5.0zM600 256h5.0v5.0h-5.0zM608 256h5.0v5.0h-5.0zM616 256h5.0v5.0h-5.0zM624 256h5.0v5.0h-5.0zM632 256h5.0v5.0h-5.0zM640 256h5.0v5.0h-5.0zM704 256h5.0v5.0h-5.0zM712 256h5.0v5.0h-5.0zM728 256h5.0v5.0h-5.0zM736 256h5.0v5.0h-5.0zM752 256h5.0v5.0h-5.0zM760 256h5.0v5.0h-5.0zM768 256h5.0v5.0h-5.0zM776 256h5.0v5.0h-5.0zM784 256h5.0v5.0h-5.0zM792 256h5.0v5.0h-5.0zM800 256h5.0v5.0h-5.0zM808 256h5.0v5.0h-5.0zM816 256h5.0v5.0h-5.0zM880 256h5.0v5.0h-5.0zM896 256h5.0v5.0h-5.0zM1056 256h5.0v5.0h-5.0zM1120 256h5.0v5.0h-5.0zM1136 256h5.0v5.0h-5.0zM8 264h5.0v5.0h-5.0zM24 264h5.0v5.0h-5.0zM40 264h5.0v5.0h-5.0zM56 264h5.0v5.0h-5.0zM64 264h5.0v5.0h-5.0zM72 264h5.0v5.0h-5.0zM536 264h5.0v5.0h-5.0zM552 264h5.0v5.0h-5.0zM568 264h5.0v5.0h-5.0zM576 264h5.0v5.0h-5.0zM584 264h5.0v5.0h-5.0zM600 264h5.0v5.0h-5.0zM616 264h5.0v5.0h-5.0zM632 264h5.0v5.0h-5.0zM728 264h5.0v5.0h-5.0zM744 264h5.0v5.0h-5.0zM760 264h5.0v5.0h-5.0zM768 264h5.0v5.0h-5.0zM776 264h5.0v5.0h-5.0zM792 264h5.0v5.0h-5.0zM808 264h5.0v5.0h-5.0zM896 264h5.0v5.0h-5.0zM904 264h5.0v5.0h-5.0zM0 272h5.0v5.0h-5.0zM8 272h5.0v5.0h-5.0zM16 272h5.0v5.0h-5.0zM24 272h5.0v5.0h-5.0zM32 272h5.0v5.0h-5.0zM40 272h5.0v5.0h-5.0zM48 272h5.0v5.0h-5.0zM56 272h5.0v5.0h-5.0zM64 272h5.0v5.0h-5.0zM72 272h5.0v5.0h-5.0zM88 272h5.0v5.0h-5.0zM176 272h5.0v5.0h-5.0zM352 272h5.0v5.0h-5.0zM528 272h5.0v5.0h-5.0zM536 272h5.0v5.0h-5.0zM544 272h5.0v5.0h-5.0zM552 272h5.0v5.0h-5.0zM560 272h5.0v5.0h-5.0zM568 272h5.0v5.0h-5.0zM576 272h5.0v5.0h-5.0zM584 272h5.0v5.0h-5.0zM592 272h5.0v5.0h-5.0zM600 272h5.0v5.0h-5.0zM608 272h5.0v5.0h-5.0zM616 272h5.0v5.0h-5.0zM624 272h5.0v5.0h-5.0zM704 272h5.0v5.0h-5.0zM720 272h5.0v5.0h-5.0zM736 272h5.0v5.0h-5.0zM744 272h5.0v5.0h-5.0zM752 272h5.0v5.0h-5.0zM760 272h5.0v5.0h-5.0zM768 272h5.0v5.0h-5.0zM776 272h5.0v5.0h-5.0zM784 272h5.0v5.0h-5.0zM792 272h5.0v5.0h-5.0zM800 272h5.0v5.0h-5.0zM880 272h5.0v5.0h-5.0zM888 272h5.0v5.0h-5.0zM1056 272h5.0v5.0h-5.0zM24 280h5.0v5.0h-5.0zM56 280h5.0v5.0h-5.0zM88 280h5.0v5.0h-5.0zM184 280h5.0v5.0h-5.0zM216 280h5.0v5.0h-5.0zM248 280h5.0v5.0h-5.0zM376 280h5.0v5.0h-5.0zM408 280h5.0v5.0h-5.0zM440 280h5.0v5.0h-5.0zM536 280h5.0v5.0h-5.0zM568 280h5.0v5.0h-5.0zM600 280h5.0v5.0h-5.0zM728 280h5.0v5.0h-5.0zM760 280h5.0v5.0h-5.0zM792 280h5.0v5.0h-5.0zM888 280h5.0v5.0h-5.0zM920 280h5.0v5.0h-5.0zM1080 280h5.0v5.0h-5.0zM1112 280h5.0v5.0h-5.0zM1144 280h5.0v5.0h-5.0zM32 336h5.0v5.0h-5.0zM80 336h5.0v5.0h-5.0zM208 336h5.0v5.0h-5.0zM384 336h5.0v5.0h-5.0zM432 336h5.0v5.0h-5.0zM560 336h5.0v5.0h-5.0zM736 336h5.0v5.0h-5.0zM784 336h5.0v5.0h-5.0zM912 336h5.0v5.0h-5.0zM1088 336h5.0v5.0h-5.0zM1136 336h5.0v5.0h-5.0zM24 344h5.0v5.0h-5.0zM200 344h5.0v5.0h-5.0zM216 344h5.0v5.0h-5.0zM264 344h5.0v5.0h-5.0zM552 344h5.0v5.0h-5.0zM792 344h5.0v5.0h-5.0zM904 344h5.0v5.0h-5.0zM968 344h5.0v5.0h-5.0zM1080 344h5.0v5.0h-5.0zM1096 344h5.0v5.0h-5.0zM8 352h5.0v5.0h-5.0zM192 352h5.0v5.0h-5.0zM200 352h5.0v5.0h-5.0zM208 352h5.0v5.0h-5.0zM216 352h5.0v5.0h-5.0zM224 352h5.0v5.0h-5.0zM256 352h5.0v5.0h-5.0zM264 352h5.0v5.0h-5.0zM272 352h5.0v5.0h-5.0zM360 352h5.0v5.0h-5.0zM392 352h5.0v5.0h-5.0zM432 352h5.0v5.0h-5.0zM440 352h5.0v5.0h-5.0zM544 352h5.0v5.0h-5.0zM560 352h5.0v5.0h-5.0zM728 352h5.0v5.0h-5.0zM744 352h5.0v5.0h-5.0zM752 352h5.0v5.0h-5.0zM784 352h5.0v5.0h-5.0zM792 352h5.0v5.0h-5.0zM800 352h5.0v5.0h-5.0zM960 352h5.0v5.0h-5.0zM968 352h5.0v5.0h-5.0zM976 352h5.0v5.0h-5.0zM1064 352h5.0v5.0h-5.0zM1072 352h5.0v5.0h-5.0zM1080 352h5.0v5.0h-5.0zM1088 352h5.0v5.0h-5.0zM1104 352h5.0v5.0h-5.0zM1136 352h5.0v5.0h-5.0zM184 360h5.0v5.0h-5.0zM200 360h5.0v5.0h-5.0zM216 360h5.0v5.0h-5.0zM232 360h5.0v5.0h-5.0zM264 360h5.0v5.0h-5.0zM280 360h5.0v5.0h-5.0zM456 360h5.0v5.0h-5.0zM536 360h5.0v5.0h-5.0zM552 360h5.0v5.0h-5.0zM568 360h5.0v5.0h-5.0zM728 360h5.0v5.0h-5.0zM736 360h5.0v5.0h-5.0zM760 360h5.0v5.0h-5.0zM792 360h5.0v5.0h-5.0zM808 360h5.0v5.0h-5.0zM936 360h5.0v5.0h-5.0zM968 360h5.0v5.0h-5.0zM984 360h5.0v5.0h-5.0zM1064 360h5.0v5.0h-5.0zM1080 360h5.0v5.0h-5.0zM1096 360h5.0v5.0h-5.0zM0 368h5.0v5.0h-5.0zM64 368h5.0v5.0h-5.0zM80 368h5.0v5.0h-5.0zM176 368h5.0v5.0h-5.0zM192 368h5.0v5.0h-5.0zM208 368h5.0v5.0h-5.0zM224 368h5.0v5.0h-5.0zM232 368h5.0v5.0h-5.0zM240 368h5.0v5.0h-5.0zM272 368h5.0v5.0h-5.0zM280 368h5.0v5.0h-5.0zM288 368h5.0v5.0h-5.0zM352 368h5.0v5.0h-5.0zM368 368h5.0v5.0h-5.0zM408 368h5.0v5.0h-5.0zM416 368h5.0v5.0h-5.0zM432 368h5.0v5.0h-5.0zM448 368h5.0v5.0h-5.0zM456 368h5.0v5.0h-5.0zM464 368h5.0v5.0h-5.0zM528 368h5.0v5.0h-5.0zM536 368h5.0v5.0h-5.0zM544 368h5.0v5.0h-5.0zM560 368h5.0v5.0h-5.0zM584 368h5.0v5.0h-5.0zM592 368h5.0v5.0h-5.0zM608 368h5.0v5.0h-5.0zM704 368h5.0v5.0h-5.0zM720 368h5.0v5.0h-5.0zM752 368h5.0v5.0h-5.0zM768 368h5.0v5.0h-5.0zM784 368h5.0v5.0h-5.0zM800 368h5.0v5.0h-5.0zM816 368h5.0v5.0h-5.0zM880 368h5.0v5.0h-5.0zM912 368h5.0v5.0h-5.0zM944 368h5.0v5.0h-5.0zM976 368h5.0v5.0h-5.0zM984 368h5.0v5.0h-5.0zM992 368h5.0v5.0h-5.0zM1056 368h5.0v5.0h-5.0zM1064 368h5.0v5.0h-5.0zM1072 368h5.0v5.0h-5.0zM1104 368h5.0v5.0h-5.0zM1120 368h5.0v5.0h-5.0zM1136 368h5.0v5.0h-5.0zM184 376h5.0v5.0h-5.0zM232 376h5.0v5.0h-5.0zM280 376h5.0v5.0h-5.0zM408 376h5.0v5.0h-5.0zM456 376h5.0v5.0h-5.0zM536 376h5.0v5.0h-5.0zM984 376h5.0v5.0h-5.0zM1064 376h5.0v5.0h-5.0zM0 384h5.0v5.0h-5.0zM16 384h5.0v5.0h-5.0zM48 384h5.0v5.0h-5.0zM96 384h5.0v5.0h-5.0zM176 384h5.0v5.0h-5.0zM192 384h5.0v5.0h-5.0zM224 384h5.0v5.0h-5.0zM232 384h5.0v5.0h-5.0zM240 384h5.0v5.0h-5.0zM256 384h5.0v5.0h-5.0zM280 384h5.0v5.0h-5.0zM288 384h5.0v5.0h-5.0zM352 384h5.0v5.0h-5.0zM360 384h5.0v5.0h-5.0zM368 384h5.0v5.0h-5.0zM384 384h5.0v5.0h-5.0zM400 384h5.0v5.0h-5.0zM408 384h5.0v5.0h-5.0zM416 384h5.0v5.0h-5.0zM448 384h5.0v5.0h-5.0zM456 384h5.0v5.0h-5.0zM464 384h5.0v5.0h-5.0zM528 384h5.0v5.0h-5.0zM536 384h5.0v5.0h-5.0zM544 384h5.0v5.0h-5.0zM576 384h5.0v5.0h-5.0zM704 384h5.0v5.0h-5.0zM720 384h5.0v5.0h-5.0zM752 384h5.0v5.0h-5.0zM760 384h5.0v5.0h-5.0zM768 384h5.0v5.0h-5.0zM800 384h5.0v5.0h-5.0zM880 384h5.0v5.0h-5.0zM896 384h5.0v5.0h-5.0zM928 384h5.0v5.0h-5.0zM944 384h5.0v5.0h-5.0zM960 384h5.0v5.0h-5.0zM992 384h5.0v5.0h-5.0zM1056 384h5.0v5.0h-5.0zM1064 384h5.0v5.0h-5.0zM1072 384h5.0v5.0h-5.0zM1088 384h5.0v5.0h-5.0zM1104 384h5.0v5.0h-5.0zM1152 384h5.0v5.0h-5.0zM232 392h5.0v5.0h-5.0zM280 392h5.0v5.0h-5.0zM296 392h5.0v5.0h-5.0zM360 392h5.0v5.0h-5.0zM408 392h5.0v5.0h-5.0zM456 392h5.0v5.0h-5.0zM472 392h5.0v5.0h-5.0zM536 392h5.0v5.0h-5.0zM648 392h5.0v5.0h-5.0zM760 392h5.0v5.0h-5.0zM768 392h5.0v5.0h-5.0zM808 392h5.0v5.0h-5.0zM984 392h5.0v5.0h-5.0zM1000 392h5.0v5.0h-5.0zM1064 392h5.0v5.0h-5.0zM1176 392h5.0v5.0h-5.0zM184 400h5.0v5.0h-5.0zM192 400h5.0v5.0h-5.0zM240 400h5.0v5.0h-5.0zM280 400h5.0v5.0h-5.0zM288 400h5.0v5.0h-5.0zM368 400h5.0v5.0h-5.0zM416 400h5.0v5.0h-5.0zM464 400h5.0v5.0h-5.0zM528 400h5.0v5.0h-5.0zM536 400h5.0v5.0h-5.0zM544 400h5.0v5.0h-5.0zM592 400h5.0v5.0h-5.0zM720 400h5.0v5.0h-5.0zM984 400h5.0v5.0h-5.0zM992 400h5.0v5.0h-5.0zM1064 400h5.0v5.0h-5.0zM1072 400h5.0v5.0h-5.0zM184 408h5.0v5.0h-5.0zM248 408h5.0v5.0h-5.0zM424 408h5.0v5.0h-5.0zM456 408h5.0v5.0h-5.0zM472 408h5.0v5.0h-5.0zM536 408h5.0v5.0h-5.0zM600 408h5.0v5.0h-5.0zM776 408h5.0v5.0h-5.0zM984 408h5.0v5.0h-5.0zM1176 408h5.0v5.0h-5.0zM32 416h5.0v5.0h-5.0zM48 416h5.0v5.0h-5.0zM192 416h5.0v5.0h-5.0zM200 416h5.0v5.0h-5.0zM208 416h5.0v5.0h-5.0zM224 416h5.0v5.0h-5.0zM240 416h5.0v5.0h-5.0zM248 416h5.0v5.0h-5.0zM256 416h5.0v5.0h-5.0zM272 416h5.0v5.0h-5.0zM280 416h5.0v5.0h-5.0zM352 416h5.0v5.0h-5.0zM376 416h5.0v5.0h-5.0zM384 416h5.0v5.0h-5.0zM416 416h5.0v5.0h-5.0zM424 416h5.0v5.0h-5.0zM432 416h5.0v5.0h-5.0zM448 416h5.0v5.0h-5.0zM456 416h5.0v5.0h-5.0zM464 416h5.0v5.0h-5.0zM544 416h5.0v5.0h-5.0zM552 416h5.0v5.0h-5.0zM560 416h5.0v5.0h-5.0zM576 416h5.0v5.0h-5.0zM600 416h5.0v5.0h-5.0zM608 416h5.0v5.0h-5.0zM624 416h5.0v5.0h-5.0zM640 416h5.0v5.0h-5.0zM728 416h5.0v5.0h-5.0zM736 416h5.0v5.0h-5.0zM752 416h5.0v5.0h-5.0zM784 416h5.0v5.0h-5.0zM800 416h5.0v5.0h-5.0zM912 416h5.0v5.0h-5.0zM928 416h5.0v5.0h-5.0zM960 416h5.0v5.0h-5.0zM976 416h5.0v5.0h-5.0zM1056 416h5.0v5.0h-5.0zM1072 416h5.0v5.0h-5.0zM1088 416h5.0v5.0h-5.0zM1136 416h5.0v5.0h-5.0zM1152 416h5.0v5.0h-5.0zM216 424h5.0v5.0h-5.0zM224 424h5.0v5.0h-5.0zM248 424h5.0v5.0h-5.0zM264 424h5.0v5.0h-5.0zM376 424h5.0v5.0h-5.0zM392 424h5.0v5.0h-5.0zM408 424h5.0v5.0h-5.0zM416 424h5.0v5.0h-5.0zM424 424h5.0v5.0h-5.0zM440 424h5.0v5.0h-5.0zM456 424h5.0v5.0h-5.0zM536 424h5.0v5.0h-5.0zM552 424h5.0v5.0h-5.0zM568 424h5.0v5.0h-5.0zM584 424h5.0v5.0h-5.0zM608 424h5.0v5.0h-5.0zM712 424h5.0v5.0h-5.0zM728 424h5.0v5.0h-5.0zM736 424h5.0v5.0h-5.0zM744 424h5.0v5.0h-5.0zM760 424h5.0v5.0h-5.0zM176 432h5.0v5.0h-5.0zM208 432h5.0v5.0h-5.0zM232 432h5.0v5.0h-5.0zM240 432h5.0v5.0h-5.0zM248 432h5.0v5.0h-5.0zM288 432h5.0v5.0h-5.0zM352 432h5.0v5.0h-5.0zM360 432h5.0v5.0h-5.0zM392 432h5.0v5.0h-5.0zM400 432h5.0v5.0h-5.0zM408 432h5.0v5.0h-5.0zM416 432h5.0v5.0h-5.0zM424 432h5.0v5.0h-5.0zM432 432h5.0v5.0h-5.0zM440 432h5.0v5.0h-5.0zM448 432h5.0v5.0h-5.0zM456 432h5.0v5.0h-5.0zM464 432h5.0v5.0h-5.0zM528 432h5.0v5.0h-5.0zM536 432h5.0v5.0h-5.0zM544 432h5.0v5.0h-5.0zM552 432h5.0v5.0h-5.0zM560 432h5.0v5.0h-5.0zM568 432h5.0v5.0h-5.0zM584 432h5.0v5.0h-5.0zM600 432h5.0v5.0h-5.0zM616 432h5.0v5.0h-5.0zM640 432h5.0v5.0h-5.0zM712 432h5.0v5.0h-5.0zM720 432h5.0v5.0h-5.0zM728 432h5.0v5.0h-5.0zM736 432h5.0v5.0h-5.0zM744 432h5.0v5.0h-5.0zM752 432h5.0v5.0h-5.0zM760 432h5.0v5.0h-5.0zM768 432h5.0v5.0h-5.0zM816 432h5.0v5.0h-5.0zM880 432h5.0v5.0h-5.0zM992 432h5.0v5.0h-5.0zM1056 432h5.0v5.0h-5.0zM1168 432h5.0v5.0h-5.0zM184 440h5.0v5.0h-5.0zM232 440h5.0v5.0h-5.0zM280 440h5.0v5.0h-5.0zM408 440h5.0v5.0h-5.0zM424 440h5.0v5.0h-5.0zM440 440h5.0v5.0h-5.0zM536 440h5.0v5.0h-5.0zM552 440h5.0v5.0h-5.0zM568 440h5.0v5.0h-5.0zM632 440h5.0v5.0h-5.0zM712 440h5.0v5.0h-5.0zM728 440h5.0v5.0h-5.0zM744 440h5.0v5.0h-5.0zM984 440h5.0v5.0h-5.0zM0 448h5.0v5.0h-5.0zM16 448h5.0v5.0h-5.0zM32 448h5.0v5.0h-5.0zM48 448h5.0v5.0h-5.0zM64 448h5.0v5.0h-5.0zM96 448h5.0v5.0h-5.0zM192 448h5.0v5.0h-5.0zM208 448h5.0v5.0h-5.0zM224 448h5.0v5.0h-5.0zM240 448h5.0v5.0h-5.0zM256 448h5.0v5.0h-5.0zM272 448h5.0v5.0h-5.0zM352 448h5.0v5.0h-5.0zM368 448h5.0v5.0h-5.0zM384 448h5.0v5.0h-5.0zM400 448h5.0v5.0h-5.0zM416 448h5.0v5.0h-5.0zM432 448h5.0v5.0h-5.0zM448 448h5.0v5.0h-5.0zM544 448h5.0v5.0h-5.0zM560 448h5.0v5.0h-5.0zM576 448h5.0v5.0h-5.0zM592 448h5.0v5.0h-5.0zM608 448h5.0v5.0h-5.0zM704 448h5.0v5.0h-5.0zM720 448h5.0v5.0h-5.0zM736 448h5.0v5.0h-5.0zM752 448h5.0v5.0h-5.0zM768 448h5.0v5.0h-5.0zM784 448h5.0v5.0h-5.0zM800 448h5.0v5.0h-5.0zM944 448h5.0v5.0h-5.0zM960 448h5.0v5.0h-5.0zM976 448h5.0v5.0h-5.0zM1056 448h5.0v5.0h-5.0zM1072 448h5.0v5.0h-5.0zM1088 448h5.0v5.0h-5.0zM1136 448h5.0v5.0h-5.0zM1152 448h5.0v5.0h-5.0z"/><path fill="#1b1e22" d="M40 8h5.0v5.0h-5.0zM88 8h5.0v5.0h-5.0zM200 8h5.0v5.0h-5.0zM264 8h5.0v5.0h-5.0zM376 8h5.0v5.0h-5.0zM392 8h5.0v5.0h-5.0zM904 8h5.0v5.0h-5.0zM920 8h5.0v5.0h-5.0zM1080 8h5.0v5.0h-5.0zM1088 8h5.0v5.0h-5.0zM1096 8h5.0v5.0h-5.0zM16 16h5.0v5.0h-5.0zM24 16h5.0v5.0h-5.0zM32 16h5.0v5.0h-5.0zM40 16h5.0v5.0h-5.0zM80 16h5.0v5.0h-5.0zM192 16h5.0v5.0h-5.0zM200 16h5.0v5.0h-5.0zM216 16h5.0v5.0h-5.0zM224 16h5.0v5.0h-5.0zM376 16h5.0v5.0h-5.0zM384 16h5.0v5.0h-5.0zM392 16h5.0v5.0h-5.0zM400 16h5.0v5.0h-5.0zM544 16h5.0v5.0h-5.0zM552 16h5.0v5.0h-5.0zM560 16h5.0v5.0h-5.0zM568 16h5.0v5.0h-5.0zM576 16h5.0v5.0h-5.0zM624 16h5.0v5.0h-5.0zM792 16h5.0v5.0h-5.0zM800 16h5.0v5.0h-5.0zM896 16h5.0v5.0h-5.0zM904 16h5.0v5.0h-5.0zM912 16h5.0v5.0h-5.0zM928 16h5.0v5.0h-5.0zM1080 16h5.0v5.0h-5.0zM1088 16h5.0v5.0h-5.0zM1096 16h5.0v5.0h-5.0zM1136 16h5.0v5.0h-5.0zM1144 16h5.0v5.0h-5.0zM1152 16h5.0v5.0h-5.0zM8 24h5.0v5.0h-5.0zM24 24h5.0v5.0h-5.0zM88 24h5.0v5.0h-5.0zM104 24h5.0v5.0h-5.0zM184 24h5.0v5.0h-5.0zM200 24h5.0v5.0h-5.0zM216 24h5.0v5.0h-5.0zM232 24h5.0v5.0h-5.0zM376 24h5.0v5.0h-5.0zM392 24h5.0v5.0h-5.0zM408 24h5.0v5.0h-5.0zM536 24h5.0v5.0h-5.0zM552 24h5.0v5.0h-5.0zM584 24h5.0v5.0h-5.0zM616 24h5.0v5.0h-5.0zM632 24h5.0v5.0h-5.0zM792 24h5.0v5.0h-5.0zM888 24h5.0v5.0h-5.0zM904 24h5.0v5.0h-5.0zM1064 24h5.0v5.0h-5.0zM1080 24h5.0v5.0h-5.0zM1096 24h5.0v5.0h-5.0zM1112 24h5.0v5.0h-5.0zM1160 24h5.0v5.0h-5.0zM16 32h5.0v5.0h-5.0zM48 32h5.0v5.0h-5.0zM96 32h5.0v5.0h-5.0zM104 32h5.0v5.0h-5.0zM184 32h5.0v5.0h-5.0zM192 32h5.0v5.0h-5.0zM224 32h5.0v5.0h-5.0zM232 32h5.0v5.0h-5.0zM264 32h5.0v5.0h-5.0zM352 32h5.0v5.0h-5.0zM400 32h5.0v5.0h-5.0zM408 32h5.0v5.0h-5.0zM448 32h5.0v5.0h-5.0zM536 32h5.0v5.0h-5.0zM544 32h5.0v5.0h-5.0zM576 32h5.0v5.0h-5.0zM584 32h5.0v5.0h-5.0zM888 32h5.0v5.0h-5.0zM896 32h5.0v5.0h-5.0zM928 32h5.0v5.0h-5.0zM984 32h5.0v5.0h-5.0zM1064 32h5.0v5.0h-5.0zM1072 32h5.0v5.0h-5.0zM1152 32h5.0v5.0h-5.0zM1160 32h5.0v5.0h-5.0zM56 40h5.0v5.0h-5.0zM104 40h5.0v5.0h-5.0zM184 40h5.0v5.0h-5.0zM408 40h5.0v5.0h-5.0zM456 40h5.0v5.0h-5.0zM536 40h5.0v5.0h-5.0zM584 40h5.0v5.0h-5.0zM808 40h5.0v5.0h-5.0zM888 40h5.0v5.0h-5.0zM936 40h5.0v5.0h-5.0zM1160 40h5.0v5.0h-5.0zM56 48h5.0v5.0h-5.0zM64 48h5.0v5.0h-5.0zM112 48h5.0v5.0h-5.0zM184 48h5.0v5.0h-5.0zM232 48h5.0v5.0h-5.0zM368 48h5.0v5.0h-5.0zM408 48h5.0v5.0h-5.0zM456 48h5.0v5.0h-5.0zM464 48h5.0v5.0h-5.0zM536 48h5.0v5.0h-5.0zM544 48h5.0v5.0h-5.0zM584 48h5.0v5.0h-5.0zM808 48h5.0v5.0h-5.0zM816 48h5.0v5.0h-5.0zM888 48h5.0v5.0h-5.0zM984 48h5.0v5.0h-5.0zM992 48h5.0v5.0h-5.0zM1120 48h5.0v5.0h-5.0zM1160 48h5.0v5.0h-5.0zM1168 48h5.0v5.0h-5.0zM184 56h5.0v5.0h-5.0zM232 56h5.0v5.0h-5.0zM408 56h5.0v5.0h-5.0zM456 56h5.0v5.0h-5.0zM536 56h5.0v5.0h-5.0zM584 56h5.0v5.0h-5.0zM1160 56h5.0v5.0h-5.0zM8 64h5.0v5.0h-5.0zM64 64h5.0v5.0h-5.0zM192 64h5.0v5.0h-5.0zM232 64h5.0v5.0h-5.0zM368 64h5.0v5.0h-5.0zM416 64h5.0v5.0h-5.0zM456 64h5.0v5.0h-5.0zM464 64h5.0v5.0h-5.0zM536 64h5.0v5.0h-5.0zM592 64h5.0v5.0h-5.0zM816 64h5.0v5.0h-5.0zM1160 64h5.0v5.0h-5.0zM1168 64h5.0v5.0h-5.0zM248 72h5.0v5.0h-5.0zM456 72h5.0v5.0h-5.0zM600 72h5.0v5.0h-5.0zM1128 72h5.0v5.0h-5.0zM1160 72h5.0v5.0h-5.0zM240 80h5.0v5.0h-5.0zM248 80h5.0v5.0h-5.0zM256 80h5.0v5.0h-5.0zM272 80h5.0v5.0h-5.0zM368 80h5.0v5.0h-5.0zM376 80h5.0v5.0h-5.0zM416 80h5.0v5.0h-5.0zM456 80h5.0v5.0h-5.0zM464 80h5.0v5.0h-5.0zM592 80h5.0v5.0h-5.0zM600 80h5.0v5.0h-5.0zM1080 80h5.0v5.0h-5.0zM1136 80h5.0v5.0h-5.0zM1152 80h5.0v5.0h-5.0zM1168 80h5.0v5.0h-5.0zM8 88h5.0v5.0h-5.0zM24 88h5.0v5.0h-5.0zM40 88h5.0v5.0h-5.0zM200 88h5.0v5.0h-5.0zM216 88h5.0v5.0h-5.0zM232 88h5.0v5.0h-5.0zM248 88h5.0v5.0h-5.0zM264 88h5.0v5.0h-5.0zM360 88h5.0v5.0h-5.0zM376 88h5.0v5.0h-5.0zM392 88h5.0v5.0h-5.0zM408 88h5.0v5.0h-5.0zM440 88h5.0v5.0h-5.0zM456 88h5.0v5.0h-5.0zM584 88h5.0v5.0h-5.0zM600 88h5.0v5.0h-5.0zM616 88h5.0v5.0h-5.0zM1064 88h5.0v5.0h-5.0zM1128 88h5.0v5.0h-5.0zM1144 88h5.0v5.0h-5.0zM1160 88h5.0v5.0h-5.0zM8 96h5.0v5.0h-5.0zM24 96h5.0v5.0h-5.0zM40 96h5.0v5.0h-5.0zM56 96h5.0v5.0h-5.0zM64 96h5.0v5.0h-5.0zM72 96h5.0v5.0h-5.0zM200 96h5.0v5.0h-5.0zM216 96h5.0v5.0h-5.0zM224 96h5.0v5.0h-5.0zM232 96h5.0v5.0h-5.0zM240 96h5.0v5.0h-5.0zM248 96h5.0v5.0h-5.0zM264 96h5.0v5.0h-5.0zM272 96h5.0v5.0h-5.0zM280 96h5.0v5.0h-5.0zM360 96h5.0v5.0h-5.0zM368 96h5.0v5.0h-5.0zM376 96h5.0v5.0h-5.0zM384 96h5.0v5.0h-5.0zM392 96h5.0v5.0h-5.0zM408 96h5.0v5.0h-5.0zM416 96h5.0v5.0h-5.0zM432 96h5.0v5.0h-5.0zM440 96h5.0v5.0h-5.0zM456 96h5.0v5.0h-5.0zM576 96h5.0v5.0h-5.0zM584 96h5.0v5.0h-5.0zM600 96h5.0v5.0h-5.0zM608 96h5.0v5.0h-5.0zM784 96h5.0v5.0h-5.0zM800 96h5.0v5.0h-5.0zM1080 96h5.0v5.0h-5.0zM1104 96h5.0v5.0h-5.0zM1112 96h5.0v5.0h-5.0zM1120 96h5.0v5.0h-5.0zM1128 96h5.0v5.0h-5.0zM1136 96h5.0v5.0h-5.0zM1144 96h5.0v5.0h-5.0zM1152 96h5.0v5.0h-5.0zM1160 96h5.0v5.0h-5.0zM32 104h5.0v5.0h-5.0zM40 104h5.0v5.0h-5.0zM56 104h5.0v5.0h-5.0zM200 104h5.0v5.0h-5.0zM224 104h5.0v5.0h-5.0zM232 104h5.0v5.0h-5.0zM264 104h5.0v5.0h-5.0zM360 104h5.0v5.0h-5.0zM408 104h5.0v5.0h-5.0zM416 104h5.0v5.0h-5.0zM424 104h5.0v5.0h-5.0zM440 104h5.0v5.0h-5.0zM600 104h5.0v5.0h-5.0zM608 104h5.0v5.0h-5.0zM616 104h5.0v5.0h-5.0zM728 104h5.0v5.0h-5.0zM792 104h5.0v5.0h-5.0zM1064 104h5.0v5.0h-5.0zM1112 104h5.0v5.0h-5.0zM1120 104h5.0v5.0h-5.0zM1128 104h5.0v5.0h-5.0zM1144 104h5.0v5.0h-5.0zM544 112h5.0v5.0h-5.0zM16 176h5.0v5.0h-5.0zM192 176h5.0v5.0h-5.0zM200 176h5.0v5.0h-5.0zM208 176h5.0v5.0h-5.0zM224 176h5.0v5.0h-5.0zM256 176h5.0v5.0h-5.0zM728 176h5.0v5.0h-5.0zM744 176h5.0v5.0h-5.0zM752 176h5.0v5.0h-5.0zM784 176h5.0v5.0h-5.0zM792 176h5.0v5.0h-5.0zM8 184h5.0v5.0h-5.0zM88 184h5.0v5.0h-5.0zM440 184h5.0v5.0h-5.0zM552 184h5.0v5.0h-5.0zM712 184h5.0v5.0h-5.0zM744 184h5.0v5.0h-5.0zM792 184h5.0v5.0h-5.0zM968 184h5.0v5.0h-5.0zM24 192h5.0v5.0h-5.0zM32 192h5.0v5.0h-5.0zM48 192h5.0v5.0h-5.0zM56 192h5.0v5.0h-5.0zM80 192h5.0v5.0h-5.0zM88 192h5.0v5.0h-5.0zM256 192h5.0v5.0h-5.0zM272 192h5.0v5.0h-5.0zM280 192h5.0v5.0h-5.0zM440 192h5.0v5.0h-5.0zM712 192h5.0v5.0h-5.0zM760 192h5.0v5.0h-5.0zM784 192h5.0v5.0h-5.0zM800 192h5.0v5.0h-5.0zM808 192h5.0v5.0h-5.0zM920 192h5.0v5.0h-5.0zM928 192h5.0v5.0h-5.0zM968 192h5.0v5.0h-5.0zM976 192h5.0v5.0h-5.0zM984 192h5.0v5.0h-5.0zM1064 192h5.0v5.0h-5.0zM56 200h5.0v5.0h-5.0zM200 200h5.0v5.0h-5.0zM216 200h5.0v5.0h-5.0zM712 200h5.0v5.0h-5.0zM808 200h5.0v5.0h-5.0zM888 200h5.0v5.0h-5.0zM896 200h5.0v5.0h-5.0zM936 200h5.0v5.0h-5.0zM968 200h5.0v5.0h-5.0zM984 200h5.0v5.0h-5.0zM8 208h5.0v5.0h-5.0zM16 208h5.0v5.0h-5.0zM48 208h5.0v5.0h-5.0zM56 208h5.0v5.0h-5.0zM104 208h5.0v5.0h-5.0zM112 208h5.0v5.0h-5.0zM176 208h5.0v5.0h-5.0zM240 208h5.0v5.0h-5.0zM272 208h5.0v5.0h-5.0zM280 208h5.0v5.0h-5.0zM456 208h5.0v5.0h-5.0zM712 208h5.0v5.0h-5.0zM720 208h5.0v5.0h-5.0zM760 208h5.0v5.0h-5.0zM808 208h5.0v5.0h-5.0zM816 208h5.0v5.0h-5.0zM888 208h5.0v5.0h-5.0zM936 208h5.0v5.0h-5.0zM1072 208h5.0v5.0h-5.0zM56 216h5.0v5.0h-5.0zM104 216h5.0v5.0h-5.0zM280 216h5.0v5.0h-5.0zM408 216h5.0v5.0h-5.0zM712 216h5.0v5.0h-5.0zM760 216h5.0v5.0h-5.0zM808 216h5.0v5.0h-5.0zM936 216h5.0v5.0h-5.0zM1064 216h5.0v5.0h-5.0zM8 224h5.0v5.0h-5.0zM56 224h5.0v5.0h-5.0zM112 224h5.0v5.0h-5.0zM176 224h5.0v5.0h-5.0zM280 224h5.0v5.0h-5.0zM416 224h5.0v5.0h-5.0zM456 224h5.0v5.0h-5.0zM464 224h5.0v5.0h-5.0zM712 224h5.0v5.0h-5.0zM760 224h5.0v5.0h-5.0zM816 224h5.0v5.0h-5.0zM888 224h5.0v5.0h-5.0zM896 224h5.0v5.0h-5.0zM936 224h5.0v5.0h-5.0zM984 224h5.0v5.0h-5.0zM1064 224h5.0v5.0h-5.0zM8 232h5.0v5.0h-5.0zM104 232h5.0v5.0h-5.0zM232 232h5.0v5.0h-5.0zM280 232h5.0v5.0h-5.0zM456 232h5.0v5.0h-5.0zM712 232h5.0v5.0h-5.0zM888 232h5.0v5.0h-5.0zM936 232h5.0v5.0h-5.0zM984 232h5.0v5.0h-5.0zM1064 232h5.0v5.0h-5.0zM64 240h5.0v5.0h-5.0zM104 240h5.0v5.0h-5.0zM112 240h5.0v5.0h-5.0zM248 240h5.0v5.0h-5.0zM288 240h5.0v5.0h-5.0zM368 240h5.0v5.0h-5.0zM416 240h5.0v5.0h-5.0zM456 240h5.0v5.0h-5.0zM464 240h5.0v5.0h-5.0zM896 240h5.0v5.0h-5.0zM952 240h5.0v5.0h-5.0zM1072 240h5.0v5.0h-5.0zM1168 240h5.0v5.0h-5.0zM104 248h5.0v5.0h-5.0zM280 248h5.0v5.0h-5.0zM376 248h5.0v5.0h-5.0zM776 248h5.0v5.0h-5.0zM904 248h5.0v5.0h-5.0zM1080 248h5.0v5.0h-5.0zM1128 248h5.0v5.0h-5.0zM1160 248h5.0v5.0h-5.0zM96 256h5.0v5.0h-5.0zM104 256h5.0v5.0h-5.0zM272 256h5.0v5.0h-5.0zM280 256h5.0v5.0h-5.0zM288 256h5.0v5.0h-5.0zM360 256h5.0v5.0h-5.0zM368 256h5.0v5.0h-5.0zM376 256h5.0v5.0h-5.0zM384 256h5.0v5.0h-5.0zM432 256h5.0v5.0h-5.0zM440 256h5.0v5.0h-5.0zM448 256h5.0v5.0h-5.0zM464 256h5.0v5.0h-5.0zM720 256h5.0v5.0h-5.0zM744 256h5.0v5.0h-5.0zM888 256h5.0v5.0h-5.0zM904 256h5.0v5.0h-5.0zM912 256h5.0v5.0h-5.0zM928 256h5.0v5.0h-5.0zM992 256h5.0v5.0h-5.0zM1064 256h5.0v5.0h-5.0zM1072 256h5.0v5.0h-5.0zM1080 256h5.0v5.0h-5.0zM1088 256h5.0v5.0h-5.0zM1096 256h5.0v5.0h-5.0zM1104 256h5.0v5.0h-5.0zM1112 256h5.0v5.0h-5.0zM1128 256h5.0v5.0h-5.0zM1144 256h5.0v5.0h-5.0zM1152 256h5.0v5.0h-5.0zM1160 256h5.0v5.0h-5.0zM1168 256h5.0v5.0h-5.0zM88 264h5.0v5.0h-5.0zM104 264h5.0v5.0h-5.0zM256 264h5.0v5.0h-5.0zM264 264h5.0v5.0h-5.0zM280 264h5.0v5.0h-5.0zM360 264h5.0v5.0h-5.0zM376 264h5.0v5.0h-5.0zM384 264h5.0v5.0h-5.0zM408 264h5.0v5.0h-5.0zM424 264h5.0v5.0h-5.0zM440 264h5.0v5.0h-5.0zM712 264h5.0v5.0h-5.0zM888 264h5.0v5.0h-5.0zM920 264h5.0v5.0h-5.0zM936 264h5.0v5.0h-5.0zM1064 264h5.0v5.0h-5.0zM1080 264h5.0v5.0h-5.0zM1088 264h5.0v5.0h-5.0zM1096 264h5.0v5.0h-5.0zM1112 264h5.0v5.0h-5.0zM1128 264h5.0v5.0h-5.0zM1144 264h5.0v5.0h-5.0zM1152 264h5.0v5.0h-5.0zM80 272h5.0v5.0h-5.0zM96 272h5.0v5.0h-5.0zM200 272h5.0v5.0h-5.0zM240 272h5.0v5.0h-5.0zM248 272h5.0v5.0h-5.0zM256 272h5.0v5.0h-5.0zM264 272h5.0v5.0h-5.0zM272 272h5.0v5.0h-5.0zM368 272h5.0v5.0h-5.0zM416 272h5.0v5.0h-5.0zM432 272h5.0v5.0h-5.0zM712 272h5.0v5.0h-5.0zM728 272h5.0v5.0h-5.0zM896 272h5.0v5.0h-5.0zM904 272h5.0v5.0h-5.0zM912 272h5.0v5.0h-5.0zM920 272h5.0v5.0h-5.0zM936 272h5.0v5.0h-5.0zM944 272h5.0v5.0h-5.0zM952 272h5.0v5.0h-5.0zM1064 272h5.0v5.0h-5.0zM1072 272h5.0v5.0h-5.0zM1088 272h5.0v5.0h-5.0zM1096 272h5.0v5.0h-5.0zM1104 272h5.0v5.0h-5.0zM1112 272h5.0v5.0h-5.0zM1120 272h5.0v5.0h-5.0zM1128 272h5.0v5.0h-5.0zM1136 272h5.0v5.0h-5.0zM1144 272h5.0v5.0h-5.0zM952 280h5.0v5.0h-5.0zM40 344h5.0v5.0h-5.0zM88 344h5.0v5.0h-5.0zM376 344h5.0v5.0h-5.0zM392 344h5.0v5.0h-5.0zM440 344h5.0v5.0h-5.0zM568 344h5.0v5.0h-5.0zM616 344h5.0v5.0h-5.0zM728 344h5.0v5.0h-5.0zM744 344h5.0v5.0h-5.0zM920 344h5.0v5.0h-5.0zM1144 344h5.0v5.0h-5.0zM16 352h5.0v5.0h-5.0zM24 352h5.0v5.0h-5.0zM32 352h5.0v5.0h-5.0zM40 352h5.0v5.0h-5.0zM48 352h5.0v5.0h-5.0zM80 352h5.0v5.0h-5.0zM88 352h5.0v5.0h-5.0zM96 352h5.0v5.0h-5.0zM368 352h5.0v5.0h-5.0zM376 352h5.0v5.0h-5.0zM384 352h5.0v5.0h-5.0zM400 352h5.0v5.0h-5.0zM448 352h5.0v5.0h-5.0zM552 352h5.0v5.0h-5.0zM568 352h5.0v5.0h-5.0zM576 352h5.0v5.0h-5.0zM608 352h5.0v5.0h-5.0zM624 352h5.0v5.0h-5.0zM712 352h5.0v5.0h-5.0zM720 352h5.0v5.0h-5.0zM736 352h5.0v5.0h-5.0zM896 352h5.0v5.0h-5.0zM904 352h5.0v5.0h-5.0zM912 352h5.0v5.0h-5.0zM920 352h5.0v5.0h-5.0zM928 352h5.0v5.0h-5.0zM1096 352h5.0v5.0h-5.0zM1144 352h5.0v5.0h-5.0zM8 360h5.0v5.0h-5.0zM24 360h5.0v5.0h-5.0zM32 360h5.0v5.0h-5.0zM40 360h5.0v5.0h-5.0zM104 360h5.0v5.0h-5.0zM360 360h5.0v5.0h-5.0zM376 360h5.0v5.0h-5.0zM392 360h5.0v5.0h-5.0zM408 360h5.0v5.0h-5.0zM440 360h5.0v5.0h-5.0zM584 360h5.0v5.0h-5.0zM616 360h5.0v5.0h-5.0zM712 360h5.0v5.0h-5.0zM744 360h5.0v5.0h-5.0zM888 360h5.0v5.0h-5.0zM904 360h5.0v5.0h-5.0zM920 360h5.0v5.0h-5.0zM1112 360h5.0v5.0h-5.0zM1144 360h5.0v5.0h-5.0zM8 368h5.0v5.0h-5.0zM184 368h5.0v5.0h-5.0zM360 368h5.0v5.0h-5.0zM400 368h5.0v5.0h-5.0zM576 368h5.0v5.0h-5.0zM640 368h5.0v5.0h-5.0zM712 368h5.0v5.0h-5.0zM760 368h5.0v5.0h-5.0zM808 368h5.0v5.0h-5.0zM888 368h5.0v5.0h-5.0zM896 368h5.0v5.0h-5.0zM928 368h5.0v5.0h-5.0zM936 368h5.0v5.0h-5.0zM1112 368h5.0v5.0h-5.0zM1160 368h5.0v5.0h-5.0zM1168 368h5.0v5.0h-5.0zM360 376h5.0v5.0h-5.0zM584 376h5.0v5.0h-5.0zM712 376h5.0v5.0h-5.0zM760 376h5.0v5.0h-5.0zM808 376h5.0v5.0h-5.0zM936 376h5.0v5.0h-5.0zM1112 376h5.0v5.0h-5.0zM184 384h5.0v5.0h-5.0zM584 384h5.0v5.0h-5.0zM592 384h5.0v5.0h-5.0zM712 384h5.0v5.0h-5.0zM808 384h5.0v5.0h-5.0zM816 384h5.0v5.0h-5.0zM888 384h5.0v5.0h-5.0zM936 384h5.0v5.0h-5.0zM984 384h5.0v5.0h-5.0zM1112 384h5.0v5.0h-5.0zM1120 384h5.0v5.0h-5.0zM1160 384h5.0v5.0h-5.0zM1168 384h5.0v5.0h-5.0zM184 392h5.0v5.0h-5.0zM584 392h5.0v5.0h-5.0zM632 392h5.0v5.0h-5.0zM712 392h5.0v5.0h-5.0zM936 392h5.0v5.0h-5.0zM1112 392h5.0v5.0h-5.0zM1160 392h5.0v5.0h-5.0zM8 400h5.0v5.0h-5.0zM360 400h5.0v5.0h-5.0zM632 400h5.0v5.0h-5.0zM712 400h5.0v5.0h-5.0zM768 400h5.0v5.0h-5.0zM816 400h5.0v5.0h-5.0zM944 400h5.0v5.0h-5.0zM1120 400h5.0v5.0h-5.0zM1168 400h5.0v5.0h-5.0zM280 408h5.0v5.0h-5.0zM632 408h5.0v5.0h-5.0zM888 408h5.0v5.0h-5.0zM952 408h5.0v5.0h-5.0zM1128 408h5.0v5.0h-5.0zM1160 408h5.0v5.0h-5.0zM16 416h5.0v5.0h-5.0zM24 416h5.0v5.0h-5.0zM80 416h5.0v5.0h-5.0zM288 416h5.0v5.0h-5.0zM368 416h5.0v5.0h-5.0zM592 416h5.0v5.0h-5.0zM632 416h5.0v5.0h-5.0zM720 416h5.0v5.0h-5.0zM768 416h5.0v5.0h-5.0zM776 416h5.0v5.0h-5.0zM816 416h5.0v5.0h-5.0zM944 416h5.0v5.0h-5.0zM952 416h5.0v5.0h-5.0zM984 416h5.0v5.0h-5.0zM992 416h5.0v5.0h-5.0zM1080 416h5.0v5.0h-5.0zM1120 416h5.0v5.0h-5.0zM1128 416h5.0v5.0h-5.0zM1160 416h5.0v5.0h-5.0zM1168 416h5.0v5.0h-5.0zM8 424h5.0v5.0h-5.0zM24 424h5.0v5.0h-5.0zM184 424h5.0v5.0h-5.0zM200 424h5.0v5.0h-5.0zM232 424h5.0v5.0h-5.0zM280 424h5.0v5.0h-5.0zM360 424h5.0v5.0h-5.0zM600 424h5.0v5.0h-5.0zM616 424h5.0v5.0h-5.0zM632 424h5.0v5.0h-5.0zM776 424h5.0v5.0h-5.0zM792 424h5.0v5.0h-5.0zM800 424h5.0v5.0h-5.0zM808 424h5.0v5.0h-5.0zM928 424h5.0v5.0h-5.0zM952 424h5.0v5.0h-5.0zM968 424h5.0v5.0h-5.0zM984 424h5.0v5.0h-5.0zM1064 424h5.0v5.0h-5.0zM1080 424h5.0v5.0h-5.0zM1096 424h5.0v5.0h-5.0zM1112 424h5.0v5.0h-5.0zM1144 424h5.0v5.0h-5.0zM1160 424h5.0v5.0h-5.0zM8 432h5.0v5.0h-5.0zM16 432h5.0v5.0h-5.0zM24 432h5.0v5.0h-5.0zM32 432h5.0v5.0h-5.0zM112 432h5.0v5.0h-5.0zM184 432h5.0v5.0h-5.0zM192 432h5.0v5.0h-5.0zM200 432h5.0v5.0h-5.0zM216 432h5.0v5.0h-5.0zM224 432h5.0v5.0h-5.0zM256 432h5.0v5.0h-5.0zM264 432h5.0v5.0h-5.0zM272 432h5.0v5.0h-5.0zM280 432h5.0v5.0h-5.0zM368 432h5.0v5.0h-5.0zM376 432h5.0v5.0h-5.0zM384 432h5.0v5.0h-5.0zM576 432h5.0v5.0h-5.0zM592 432h5.0v5.0h-5.0zM608 432h5.0v5.0h-5.0zM624 432h5.0v5.0h-5.0zM632 432h5.0v5.0h-5.0zM776 432h5.0v5.0h-5.0zM784 432h5.0v5.0h-5.0zM792 432h5.0v5.0h-5.0zM800 432h5.0v5.0h-5.0zM808 432h5.0v5.0h-5.0zM936 432h5.0v5.0h-5.0zM960 432h5.0v5.0h-5.0zM968 432h5.0v5.0h-5.0zM976 432h5.0v5.0h-5.0zM984 432h5.0v5.0h-5.0zM1064 432h5.0v5.0h-5.0zM1072 432h5.0v5.0h-5.0zM1080 432h5.0v5.0h-5.0zM1088 432h5.0v5.0h-5.0zM1096 432h5.0v5.0h-5.0zM1104 432h5.0v5.0h-5.0zM1112 432h5.0v5.0h-5.0zM1120 432h5.0v5.0h-5.0zM1136 432h5.0v5.0h-5.0zM1144 432h5.0v5.0h-5.0zM1160 432h5.0v5.0h-5.0zM8 440h5.0v5.0h-5.0zM24 440h5.0v5.0h-5.0zM200 440h5.0v5.0h-5.0zM216 440h5.0v5.0h-5.0zM248 440h5.0v5.0h-5.0zM264 440h5.0v5.0h-5.0zM360 440h5.0v5.0h-5.0zM376 440h5.0v5.0h-5.0zM392 440h5.0v5.0h-5.0zM584 440h5.0v5.0h-5.0zM600 440h5.0v5.0h-5.0zM616 440h5.0v5.0h-5.0zM760 440h5.0v5.0h-5.0zM776 440h5.0v5.0h-5.0zM792 440h5.0v5.0h-5.0zM968 440h5.0v5.0h-5.0zM1064 440h5.0v5.0h-5.0zM1080 440h5.0v5.0h-5.0zM1144 440h5.0v5.0h-5.0zM80 448h5.0v5.0h-5.0zM896 448h5.0v5.0h-5.0zM912 448h5.0v5.0h-5.0zM928 448h5.0v5.0h-5.0zM1104 448h5.0v5.0h-5.0zM1120 448h5.0v5.0h-5.0z"/><path fill="#24272c" d="M24 8h5.0v5.0h-5.0zM216 8h5.0v5.0h-5.0zM384 8h5.0v5.0h-5.0zM48 16h5.0v5.0h-5.0zM88 16h5.0v5.0h-5.0zM96 16h5.0v5.0h-5.0zM208 16h5.0v5.0h-5.0zM256 16h5.0v5.0h-5.0zM264 16h5.0v5.0h-5.0zM272 16h5.0v5.0h-5.0zM368 16h5.0v5.0h-5.0zM1072 16h5.0v5.0h-5.0zM1104 16h5.0v5.0h-5.0zM40 24h5.0v5.0h-5.0zM56 24h5.0v5.0h-5.0zM264 24h5.0v5.0h-5.0zM280 24h5.0v5.0h-5.0zM360 24h5.0v5.0h-5.0zM1144 24h5.0v5.0h-5.0zM56 32h5.0v5.0h-5.0zM272 32h5.0v5.0h-5.0zM280 32h5.0v5.0h-5.0zM288 32h5.0v5.0h-5.0zM360 32h5.0v5.0h-5.0zM368 32h5.0v5.0h-5.0zM1104 32h5.0v5.0h-5.0zM1112 32h5.0v5.0h-5.0zM232 40h5.0v5.0h-5.0zM280 40h5.0v5.0h-5.0zM360 40h5.0v5.0h-5.0zM1064 40h5.0v5.0h-5.0zM1112 40h5.0v5.0h-5.0zM240 48h5.0v5.0h-5.0zM280 48h5.0v5.0h-5.0zM288 48h5.0v5.0h-5.0zM360 48h5.0v5.0h-5.0zM1064 48h5.0v5.0h-5.0zM1072 48h5.0v5.0h-5.0zM1112 48h5.0v5.0h-5.0zM280 56h5.0v5.0h-5.0zM360 56h5.0v5.0h-5.0zM1064 56h5.0v5.0h-5.0zM1112 56h5.0v5.0h-5.0zM240 64h5.0v5.0h-5.0zM280 64h5.0v5.0h-5.0zM288 64h5.0v5.0h-5.0zM360 64h5.0v5.0h-5.0zM544 64h5.0v5.0h-5.0zM1064 64h5.0v5.0h-5.0zM1072 64h5.0v5.0h-5.0zM1120 64h5.0v5.0h-5.0zM280 72h5.0v5.0h-5.0zM280 80h5.0v5.0h-5.0zM288 80h5.0v5.0h-5.0zM544 80h5.0v5.0h-5.0zM1072 80h5.0v5.0h-5.0zM1120 80h5.0v5.0h-5.0zM1128 80h5.0v5.0h-5.0zM1160 80h5.0v5.0h-5.0zM280 88h5.0v5.0h-5.0zM536 88h5.0v5.0h-5.0zM552 88h5.0v5.0h-5.0zM568 88h5.0v5.0h-5.0zM1080 88h5.0v5.0h-5.0zM1096 88h5.0v5.0h-5.0zM1112 88h5.0v5.0h-5.0zM16 96h5.0v5.0h-5.0zM32 96h5.0v5.0h-5.0zM256 96h5.0v5.0h-5.0zM448 96h5.0v5.0h-5.0zM536 96h5.0v5.0h-5.0zM544 96h5.0v5.0h-5.0zM552 96h5.0v5.0h-5.0zM560 96h5.0v5.0h-5.0zM568 96h5.0v5.0h-5.0zM592 96h5.0v5.0h-5.0zM1064 96h5.0v5.0h-5.0zM1072 96h5.0v5.0h-5.0zM1088 96h5.0v5.0h-5.0zM1096 96h5.0v5.0h-5.0zM8 104h5.0v5.0h-5.0zM24 104h5.0v5.0h-5.0zM248 104h5.0v5.0h-5.0zM536 104h5.0v5.0h-5.0zM544 104h5.0v5.0h-5.0zM552 104h5.0v5.0h-5.0zM568 104h5.0v5.0h-5.0zM584 104h5.0v5.0h-5.0zM1080 104h5.0v5.0h-5.0zM1096 104h5.0v5.0h-5.0zM24 176h5.0v5.0h-5.0zM32 176h5.0v5.0h-5.0zM40 176h5.0v5.0h-5.0zM216 176h5.0v5.0h-5.0zM720 176h5.0v5.0h-5.0zM736 176h5.0v5.0h-5.0zM24 184h5.0v5.0h-5.0zM40 184h5.0v5.0h-5.0zM184 184h5.0v5.0h-5.0zM200 184h5.0v5.0h-5.0zM216 184h5.0v5.0h-5.0zM264 184h5.0v5.0h-5.0zM728 184h5.0v5.0h-5.0zM8 192h5.0v5.0h-5.0zM16 192h5.0v5.0h-5.0zM40 192h5.0v5.0h-5.0zM96 192h5.0v5.0h-5.0zM104 192h5.0v5.0h-5.0zM184 192h5.0v5.0h-5.0zM192 192h5.0v5.0h-5.0zM200 192h5.0v5.0h-5.0zM208 192h5.0v5.0h-5.0zM216 192h5.0v5.0h-5.0zM224 192h5.0v5.0h-5.0zM232 192h5.0v5.0h-5.0zM264 192h5.0v5.0h-5.0zM720 192h5.0v5.0h-5.0zM728 192h5.0v5.0h-5.0zM736 192h5.0v5.0h-5.0zM744 192h5.0v5.0h-5.0zM752 192h5.0v5.0h-5.0zM792 192h5.0v5.0h-5.0zM8 200h5.0v5.0h-5.0zM104 200h5.0v5.0h-5.0zM184 200h5.0v5.0h-5.0zM192 200h5.0v5.0h-5.0zM232 200h5.0v5.0h-5.0zM280 200h5.0v5.0h-5.0zM760 200h5.0v5.0h-5.0zM184 208h5.0v5.0h-5.0zM192 208h5.0v5.0h-5.0zM224 208h5.0v5.0h-5.0zM232 208h5.0v5.0h-5.0zM984 208h5.0v5.0h-5.0zM992 208h5.0v5.0h-5.0zM8 216h5.0v5.0h-5.0zM184 216h5.0v5.0h-5.0zM232 216h5.0v5.0h-5.0zM984 216h5.0v5.0h-5.0zM184 224h5.0v5.0h-5.0zM192 224h5.0v5.0h-5.0zM232 224h5.0v5.0h-5.0zM240 224h5.0v5.0h-5.0zM288 224h5.0v5.0h-5.0zM944 224h5.0v5.0h-5.0zM992 224h5.0v5.0h-5.0zM184 232h5.0v5.0h-5.0zM288 232h5.0v5.0h-5.0zM992 232h5.0v5.0h-5.0zM192 240h5.0v5.0h-5.0zM240 240h5.0v5.0h-5.0zM280 240h5.0v5.0h-5.0zM944 240h5.0v5.0h-5.0zM984 240h5.0v5.0h-5.0zM992 240h5.0v5.0h-5.0zM200 248h5.0v5.0h-5.0zM248 248h5.0v5.0h-5.0zM424 248h5.0v5.0h-5.0zM456 248h5.0v5.0h-5.0zM952 248h5.0v5.0h-5.0zM984 248h5.0v5.0h-5.0zM184 256h5.0v5.0h-5.0zM192 256h5.0v5.0h-5.0zM200 256h5.0v5.0h-5.0zM208 256h5.0v5.0h-5.0zM216 256h5.0v5.0h-5.0zM224 256h5.0v5.0h-5.0zM232 256h5.0v5.0h-5.0zM240 256h5.0v5.0h-5.0zM248 256h5.0v5.0h-5.0zM256 256h5.0v5.0h-5.0zM264 256h5.0v5.0h-5.0zM392 256h5.0v5.0h-5.0zM400 256h5.0v5.0h-5.0zM408 256h5.0v5.0h-5.0zM416 256h5.0v5.0h-5.0zM424 256h5.0v5.0h-5.0zM456 256h5.0v5.0h-5.0zM920 256h5.0v5.0h-5.0zM936 256h5.0v5.0h-5.0zM944 256h5.0v5.0h-5.0zM952 256h5.0v5.0h-5.0zM960 256h5.0v5.0h-5.0zM968 256h5.0v5.0h-5.0zM976 256h5.0v5.0h-5.0zM984 256h5.0v5.0h-5.0zM184 264h5.0v5.0h-5.0zM192 264h5.0v5.0h-5.0zM200 264h5.0v5.0h-5.0zM216 264h5.0v5.0h-5.0zM232 264h5.0v5.0h-5.0zM248 264h5.0v5.0h-5.0zM392 264h5.0v5.0h-5.0zM448 264h5.0v5.0h-5.0zM456 264h5.0v5.0h-5.0zM952 264h5.0v5.0h-5.0zM960 264h5.0v5.0h-5.0zM968 264h5.0v5.0h-5.0zM984 264h5.0v5.0h-5.0zM1160 264h5.0v5.0h-5.0zM184 272h5.0v5.0h-5.0zM192 272h5.0v5.0h-5.0zM208 272h5.0v5.0h-5.0zM216 272h5.0v5.0h-5.0zM224 272h5.0v5.0h-5.0zM232 272h5.0v5.0h-5.0zM360 272h5.0v5.0h-5.0zM376 272h5.0v5.0h-5.0zM384 272h5.0v5.0h-5.0zM392 272h5.0v5.0h-5.0zM400 272h5.0v5.0h-5.0zM408 272h5.0v5.0h-5.0zM424 272h5.0v5.0h-5.0zM440 272h5.0v5.0h-5.0zM448 272h5.0v5.0h-5.0zM928 272h5.0v5.0h-5.0zM960 272h5.0v5.0h-5.0zM968 272h5.0v5.0h-5.0zM976 272h5.0v5.0h-5.0zM1080 272h5.0v5.0h-5.0zM1152 272h5.0v5.0h-5.0zM616 352h5.0v5.0h-5.0zM1152 352h5.0v5.0h-5.0zM56 360h5.0v5.0h-5.0zM88 360h5.0v5.0h-5.0zM632 360h5.0v5.0h-5.0zM1160 360h5.0v5.0h-5.0zM16 368h5.0v5.0h-5.0zM48 368h5.0v5.0h-5.0zM56 368h5.0v5.0h-5.0zM96 368h5.0v5.0h-5.0zM104 368h5.0v5.0h-5.0zM112 368h5.0v5.0h-5.0zM624 368h5.0v5.0h-5.0zM632 368h5.0v5.0h-5.0zM1152 368h5.0v5.0h-5.0zM8 376h5.0v5.0h-5.0zM56 376h5.0v5.0h-5.0zM104 376h5.0v5.0h-5.0zM632 376h5.0v5.0h-5.0zM888 376h5.0v5.0h-5.0zM1160 376h5.0v5.0h-5.0zM8 384h5.0v5.0h-5.0zM56 384h5.0v5.0h-5.0zM64 384h5.0v5.0h-5.0zM104 384h5.0v5.0h-5.0zM112 384h5.0v5.0h-5.0zM632 384h5.0v5.0h-5.0zM640 384h5.0v5.0h-5.0zM8 392h5.0v5.0h-5.0zM56 392h5.0v5.0h-5.0zM64 392h5.0v5.0h-5.0zM104 392h5.0v5.0h-5.0zM640 392h5.0v5.0h-5.0zM888 392h5.0v5.0h-5.0zM16 400h5.0v5.0h-5.0zM64 400h5.0v5.0h-5.0zM112 400h5.0v5.0h-5.0zM640 400h5.0v5.0h-5.0zM888 400h5.0v5.0h-5.0zM896 400h5.0v5.0h-5.0zM72 408h5.0v5.0h-5.0zM104 408h5.0v5.0h-5.0zM808 408h5.0v5.0h-5.0zM64 416h5.0v5.0h-5.0zM72 416h5.0v5.0h-5.0zM96 416h5.0v5.0h-5.0zM104 416h5.0v5.0h-5.0zM112 416h5.0v5.0h-5.0zM808 416h5.0v5.0h-5.0zM896 416h5.0v5.0h-5.0zM904 416h5.0v5.0h-5.0zM32 424h5.0v5.0h-5.0zM40 424h5.0v5.0h-5.0zM56 424h5.0v5.0h-5.0zM72 424h5.0v5.0h-5.0zM88 424h5.0v5.0h-5.0zM96 424h5.0v5.0h-5.0zM104 424h5.0v5.0h-5.0zM888 424h5.0v5.0h-5.0zM904 424h5.0v5.0h-5.0zM920 424h5.0v5.0h-5.0zM936 424h5.0v5.0h-5.0zM1120 424h5.0v5.0h-5.0zM1128 424h5.0v5.0h-5.0zM40 432h5.0v5.0h-5.0zM48 432h5.0v5.0h-5.0zM56 432h5.0v5.0h-5.0zM64 432h5.0v5.0h-5.0zM72 432h5.0v5.0h-5.0zM80 432h5.0v5.0h-5.0zM88 432h5.0v5.0h-5.0zM96 432h5.0v5.0h-5.0zM104 432h5.0v5.0h-5.0zM888 432h5.0v5.0h-5.0zM896 432h5.0v5.0h-5.0zM904 432h5.0v5.0h-5.0zM912 432h5.0v5.0h-5.0zM920 432h5.0v5.0h-5.0zM928 432h5.0v5.0h-5.0zM944 432h5.0v5.0h-5.0zM952 432h5.0v5.0h-5.0zM1128 432h5.0v5.0h-5.0zM1152 432h5.0v5.0h-5.0zM40 440h5.0v5.0h-5.0zM56 440h5.0v5.0h-5.0zM72 440h5.0v5.0h-5.0zM88 440h5.0v5.0h-5.0zM888 440h5.0v5.0h-5.0zM904 440h5.0v5.0h-5.0zM920 440h5.0v5.0h-5.0zM936 440h5.0v5.0h-5.0zM952 440h5.0v5.0h-5.0zM1096 440h5.0v5.0h-5.0zM1112 440h5.0v5.0h-5.0zM1128 440h5.0v5.0h-5.0z"/></svg>